<?xml version="1.0" encoding="utf-8"?>
<!-- Generator: Adobe Illustrator 24.1.1, SVG Export Plug-In . SVG Version: 6.00 Build 0)  -->
<svg version="1.1" id="Layer_1" xmlns="http://www.w3.org/2000/svg" xmlns:xlink="http://www.w3.org/1999/xlink" x="0px" y="0px"
	 viewBox="0 0 512 512" style="enable-background:new 0 0 512 512;" xml:space="preserve">
<style type="text/css">
	.st0{fill:#69B42D;}
</style>
<path class="st0" d="M414.3,225.4c-6.5-41.2-24-76.4-51.1-102.5C334.4,95.2,295.9,79.8,256,80c-35.5,0-68.2,11.7-94.7,33.8
	c-20.2,17-35.8,38.9-45.2,63.6c-30.3,4.8-57.5,17.2-77.4,35.4C13.4,235.9,0,267.4,0,304c0,36,14.4,68.9,40.5,92.6
	C65.6,419.4,99.6,432,136,432h260c32.4,0,60.2-8.6,80.6-24.8c23.2-18.5,35.4-45.8,35.4-79.2C512,266.1,463.6,232.7,414.3,225.4z
	 M209.6,360.4l-69.2-76.7l23.8-21.4l44.6,49.5l106.3-126.2l24.5,20.6L209.6,360.4z"/>
</svg>
