<?xml version="1.0" encoding="utf-8"?>
<!-- Generator: Adobe Illustrator 24.1.1, SVG Export Plug-In . SVG Version: 6.00 Build 0)  -->
<svg version="1.1" id="Layer_1" xmlns="http://www.w3.org/2000/svg" xmlns:xlink="http://www.w3.org/1999/xlink" x="0px" y="0px"
	 viewBox="0 0 512 512" style="enable-background:new 0 0 512 512;" xml:space="preserve">
<style type="text/css">
	.st0{fill:#C3DBA0;}
</style>
<path class="st0" d="M414.4,97.6C327.3,9.7,185.5,9,97.6,96.1S9,324.9,96.1,412.8c0.5,0.5,1,1,1.6,1.6c87,87.9,228.9,88.6,316.8,1.6
	s88.6-228.9,1.6-316.8C415.4,98.6,414.9,98.1,414.4,97.6z M328,208c13.3,0,24,10.7,24,24s-10.7,24-24,24s-24-10.7-24-24l0,0
	c0-13.2,10.7-24,23.9-24C327.9,208,328,208,328,208z M184,208c13.3,0,24,10.7,24,24s-10.7,24-24,24s-24-10.7-24-24l0,0
	c0-13.2,10.7-24,23.9-24C183.9,208,184,208,184,208z M256,288c45.4,0,83.8,29.5,95.7,69.8c1,3.5,2.3,10.2,2.3,10.2H158
	c0,0,1.3-6.7,2.3-10.2C172.1,317.5,210.5,288,256,288z"/>
</svg>
